# Blender v2.79 (sub 0) OBJ File: 'CombatZone.blend'
# www.blender.org
mtllib CombatZone.mtl
o Cube
v 5.000000 0.000000 -1.000000
v 5.000000 0.000000 1.000000
v -5.000000 0.000000 1.000000
v -5.000000 0.000000 -1.000000
v 5.000000 1.000000 -0.999999
v 5.000000 1.000000 1.000001
v -5.000000 1.000000 1.000000
v -5.000000 1.000000 -1.000000
v -4.900000 1.000000 -0.400000
v -4.400000 1.000000 -0.400000
v -4.900000 1.000000 -0.900000
v -4.400000 1.000000 -0.900000
v -4.400000 5.000000 -0.400000
v 4.400000 1.000000 -0.400000
v 4.900000 1.000000 -0.400000
v 4.400000 1.000000 -0.900000
v 4.900000 1.000000 -0.900000
v 4.400000 5.000000 -0.900000
v 4.900000 5.500000 -0.900000
v -4.900000 5.500000 -0.400000
v -4.900000 5.500000 -0.900000
v -4.400000 5.000000 -0.900000
v 4.900000 5.500000 -0.400000
v 4.400000 5.000000 -0.400000
vn 0.0000 -1.0000 0.0000
vn 0.0000 1.0000 0.0000
vn 1.0000 0.0000 0.0000
vn -0.0000 -0.0000 1.0000
vn -1.0000 0.0000 -0.0000
vn 0.0000 0.0000 -1.0000
vn 0.7071 0.7071 0.0000
vn -0.7071 0.7071 0.0000
usemtl Material
s off
f 1//1 2//1 3//1 4//1
f 5//2 8//2 7//2 6//2
f 1//3 5//3 6//3 2//3
f 2//4 6//4 7//4 3//4
f 3//5 7//5 8//5 4//5
f 5//6 1//6 4//6 8//6
f 9//1 11//1 12//1 10//1
f 20//7 13//7 22//7 21//7
f 11//5 9//5 20//5 21//5
f 12//6 11//6 21//6 22//6
f 10//3 12//3 22//3 13//3
f 9//4 10//4 13//4 20//4
f 14//1 16//1 17//1 15//1
f 24//8 23//8 19//8 18//8
f 16//5 14//5 24//5 18//5
f 17//6 16//6 18//6 19//6
f 15//3 17//3 19//3 23//3
f 14//4 15//4 23//4 24//4
f 21//2 20//2 23//2 19//2
f 22//6 21//6 19//6 18//6
f 13//1 22//1 18//1 24//1
f 20//4 13//4 24//4 23//4
